#N canvas 953 0 1920 1037 12;
#X obj 77 195 metro;
#X obj 77 217 i;
#X msg 109 85 60 \$1;
#X obj 109 107 /;
#X msg 109 129 1000 \$1;
#X obj 109 151 /;
#X obj 183 32 inlet bpm;
#X obj 81 354 outlet;
#X msg 77 85 1;
#X obj 77 63 t b f;
#X obj 77 19 loadbang;
#X obj 77 41 \$1;
#X obj 77 283 select 0 24 49 74, f 28;
#X obj 109 173 / 100;
#X obj 105 217 + 1;
#X obj 154 212 >= 99;
#X obj 154 236 select 1;
#X msg 154 260 0;
#X obj 77 241 t f f;
#X msg 77 312 1;
#X msg 120 311 2;
#X msg 172 313 3;
#X msg 225 314 4;
#X text 312 204 \$1: bpm \;;
#X obj 154 353 s main-clock;
#X text 244 352 <--- "main-clock" is what you want to bind to, f 24;
#X obj 262 29 r bpm;
#X text 304 30 <-- float;
#X connect 0 0 1 0;
#X connect 1 0 14 0;
#X connect 1 0 18 0;
#X connect 2 0 3 0;
#X connect 3 0 4 0;
#X connect 4 0 5 0;
#X connect 5 0 13 0;
#X connect 6 0 2 0;
#X connect 8 0 0 0;
#X connect 9 0 8 0;
#X connect 9 1 2 0;
#X connect 10 0 11 0;
#X connect 11 0 9 0;
#X connect 12 0 19 0;
#X connect 12 1 20 0;
#X connect 12 2 21 0;
#X connect 12 3 22 0;
#X connect 13 0 0 1;
#X connect 14 0 1 1;
#X connect 15 0 16 0;
#X connect 16 0 17 0;
#X connect 17 0 1 1;
#X connect 18 0 12 0;
#X connect 18 1 15 0;
#X connect 19 0 7 0;
#X connect 19 0 24 0;
#X connect 20 0 7 0;
#X connect 20 0 24 0;
#X connect 21 0 7 0;
#X connect 21 0 24 0;
#X connect 22 0 7 0;
#X connect 22 0 24 0;
#X connect 26 0 9 0;
