#N canvas 953 0 958 1028 12;
#N canvas 793 84 816 858 clock 1;
#X obj 39 139 metro;
#X obj 39 161 i;
#X obj 41 20 inlet bpm;
#X obj 36 307 outlet;
#X obj 67 161 + 1;
#X obj 114 174 select 1;
#X msg 114 198 0;
#X obj 39 185 t f f;
#X msg 32 265 1;
#X msg 75 264 2;
#X msg 118 266 3;
#X msg 161 267 4;
#X obj 109 306 s main-clock;
#X obj 147 20 r bpm;
#X obj 73 84 * 200;
#X msg 73 108 tempo \$1 perminute;
#X obj 41 44 t b f;
#X obj 114 150 >= 199;
#X obj 32 236 select 0 49 99 149, f 25;
#X obj 208 24 r stop-start;
#X connect 0 0 1 0;
#X connect 1 0 4 0;
#X connect 1 0 7 0;
#X connect 2 0 16 0;
#X connect 4 0 1 1;
#X connect 5 0 6 0;
#X connect 6 0 1 1;
#X connect 7 0 18 0;
#X connect 7 1 17 0;
#X connect 8 0 3 0;
#X connect 8 0 12 0;
#X connect 9 0 3 0;
#X connect 9 0 12 0;
#X connect 10 0 3 0;
#X connect 10 0 12 0;
#X connect 11 0 3 0;
#X connect 11 0 12 0;
#X connect 13 0 16 0;
#X connect 14 0 15 0;
#X connect 15 0 0 0;
#X connect 16 0 0 0;
#X connect 16 1 14 0;
#X connect 17 0 5 0;
#X connect 18 0 8 0;
#X connect 18 1 9 0;
#X connect 18 2 10 0;
#X connect 18 3 11 0;
#X connect 19 0 0 0;
#X restore 149 141 pd clock;
#X obj 249 81 coin;
#N canvas -7 0 958 1028 obstacles 0;
#X obj 46 26 inlet generate;
#X obj 94 105 until;
#X obj 97 127 random 2;
#X obj 104 77 4;
#X obj 258 94 t f f;
#X obj 257 144 spigot;
#X obj 291 120 >> 0;
#X text 251 175 [until] is very unsafe \, this ensures it doesn't get a value less than 0, f 24;
#X obj 46 201 list append;
#X obj 120 177 list prepend;
#X obj 47 50 t b b b, f 20;
#X obj 213 180 t l;
#X obj 46 225 s obstacles;
#X obj 258 66 r number-of-lanes;
#X obj 309 152 select 0;
#X obj 69 449 print number-of-lanes: invalid number (should be > 0);
#X connect 0 0 10 0;
#X connect 1 0 2 0;
#X connect 2 0 9 0;
#X connect 3 0 1 0;
#X connect 4 0 5 0;
#X connect 4 1 6 0;
#X connect 5 0 3 1;
#X connect 6 0 5 1;
#X connect 6 0 14 0;
#X connect 8 0 12 0;
#X connect 9 0 8 1;
#X connect 9 0 11 0;
#X connect 10 0 8 0;
#X connect 10 1 3 0;
#X connect 10 2 9 1;
#X connect 11 0 9 1;
#X connect 13 0 4 0;
#X connect 14 0 15 0;
#X restore 151 200 pd obstacles;
#X obj 149 165 t b;
#X obj 65 87 loadbang;
#X msg 65 111 60;
#X text 207 330 TODO \; softlock checking;
#X connect 0 0 3 0;
#X connect 3 0 2 0;
#X connect 4 0 5 0;
#X connect 5 0 0 0;
