#N canvas 378 60 975 760.094 10;
#X obj 12 12 loadbang;
#X obj 144 152 list length;
#X obj 81 353 list append;
#X obj 144 293 pack, f 7;
#X obj 12 112 route bang, f 12;
#X obj 81 132 t l l, f 11;
#X msg 144 313 get \$1 \$2;
#X obj 231 212 == 0;
#X obj 144 232 spigot;
#X obj 12 383 outlet;
#X obj 12 92 pdcontrol;
#X msg 12 72 args 1, f 9;
#X obj 183 273 expr ($f1 - $f2) * -1;
#X obj 12 52 t b b, f 56;
#X obj 345 92 pdcontrol;
#X msg 345 72 args 0, f 9;
#X obj 231 192 >=;
#X obj 144 333 list store;
#X obj 12 132 list store;
#X obj 67 12 inlet;
#X obj 345 122 list length;
#X obj 345 152 >> 0;
#X obj 345 172 select 0;
#X obj 12 32 delay 1;
#X obj 345 212 print arg_handler:;
#X msg 345 192 no args :(;
#X obj 144 172 t f f, f 15;
#X obj 144 253 t f f, f 7;
#X text 230 316 args \; \$2 - infinity: default args for parent patch
;
#X connect 0 0 23 0;
#X connect 1 0 26 0;
#X connect 2 0 9 0;
#X connect 3 0 6 0;
#X connect 4 0 18 0;
#X connect 4 1 5 0;
#X connect 5 0 2 0;
#X connect 5 1 1 0;
#X connect 6 0 17 0;
#X connect 7 0 8 1;
#X connect 8 0 27 0;
#X connect 10 0 4 0;
#X connect 11 0 10 0;
#X connect 12 0 3 1;
#X connect 13 0 11 0;
#X connect 13 1 15 0;
#X connect 14 0 20 0;
#X connect 14 0 17 1;
#X connect 14 0 18 1;
#X connect 15 0 14 0;
#X connect 16 0 7 0;
#X connect 17 0 2 1;
#X connect 18 0 9 0;
#X connect 19 0 13 0;
#X connect 20 0 21 0;
#X connect 20 0 16 1;
#X connect 20 0 12 1;
#X connect 21 0 22 0;
#X connect 22 0 25 0;
#X connect 23 0 13 0;
#X connect 25 0 24 0;
#X connect 26 0 8 0;
#X connect 26 1 16 0;
#X connect 27 0 3 0;
#X connect 27 1 12 0;
