#N canvas -8 3 1920 1037 12;
#X obj 51 413 spigot;
#X obj 51 382 t b f, f 6;
#X obj 51 351 >=, f 13;
#X obj 51 320 random, f 10;
#X obj 530 66 inlet;
#X obj 447 66 inlet;
#X obj 120 289 swap, f 13;
#X obj 139 320 -;
#X obj 120 227 i;
#X obj 182 227 i;
#X obj 447 97 i;
#X obj 530 97 i;
#X obj 182 258 t b f;
#X obj 185 66 inlet;
#X obj 185 97 route set, f 25;
#X obj 185 128 unpack, f 13;
#X obj 51 475 outlet;
#X obj 99 444 spigot;
#X obj 99 382 t b f, f 6;
#X obj 138 413 == 0;
#X obj 99 475 outlet;
#X obj 51 200 r \$0-trig;
#X obj 120 200 r \$0-num;
#X obj 182 200 r \$0-den;
#X obj 185 154 s \$0-GUInum;
#X obj 273 154 s \$0-GUIden;
#X obj 357 154 s \$0-GUItrig;
#X obj 447 154 s \$0-GUInum;
#X obj 530 154 s \$0-GUIden;
#X floatatom 125 105 3 0 0 0 - \$0-GUInum \$0-num 0;
#X floatatom 125 126 3 0 0 0 - \$0-GUIden \$0-den 0;
#X obj 102 104 bng 19 50 50 0 \$0-trig \$0-GUItrig empty 0 -10 0 12 #fcfcfc #000000 #000000;
#X obj 367 66 loadbang;
#X msg 367 97 1 2;
#X connect 0 0 16 0;
#X connect 1 0 0 0;
#X connect 1 1 0 1;
#X connect 2 0 1 0;
#X connect 2 0 18 0;
#X connect 3 0 2 0;
#X connect 4 0 11 0;
#X connect 5 0 10 0;
#X connect 6 0 3 1;
#X connect 6 0 7 0;
#X connect 6 1 7 1;
#X connect 7 0 2 1;
#X connect 8 0 6 0;
#X connect 9 0 12 0;
#X connect 10 0 27 0;
#X connect 11 0 28 0;
#X connect 12 0 6 0;
#X connect 12 1 6 1;
#X connect 13 0 14 0;
#X connect 14 0 15 0;
#X connect 14 1 26 0;
#X connect 15 0 24 0;
#X connect 15 1 25 0;
#X connect 17 0 20 0;
#X connect 18 0 17 0;
#X connect 18 1 19 0;
#X connect 19 0 17 1;
#X connect 21 0 3 0;
#X connect 22 0 8 0;
#X connect 23 0 9 0;
#X connect 32 0 33 0;
#X connect 33 0 15 0;
#X coords 0 -1 1 1 50 48 2 100 100;
