#N canvas 160 209 1162 481 12;
#X obj 127 13 inlet;
#X obj 22 50 inlet;
#X obj 127 65 == 0;
#X obj 24 133 spigot;
#X obj 58 154 spigot;
#X obj 182 65 loadbang;
#X obj 10 175 outlet;
#X obj 75 52 inlet;
#X obj 127 37 t f f;
#X obj 182 89 \$1;
#X connect 0 0 8 0;
#X connect 1 0 3 0;
#X connect 2 0 3 1;
#X connect 3 0 6 0;
#X connect 4 0 6 0;
#X connect 5 0 9 0;
#X connect 7 0 4 0;
#X connect 8 0 2 0;
#X connect 8 1 4 1;
#X connect 9 0 8 0;
