#N canvas -8 3 1920 1037 12;
#X obj 335 349 >=, f 13;
#X obj 335 318 random, f 10;
#X obj 530 66 inlet;
#X obj 447 66 inlet;
#X obj 404 287 swap, f 13;
#X obj 423 318 -;
#X obj 404 225 i;
#X obj 466 225 i;
#X obj 447 97 i;
#X obj 530 97 i;
#X obj 466 256 t b f;
#X obj 185 66 inlet;
#X obj 185 97 route set, f 25;
#X obj 185 128 unpack, f 13;
#X obj 367 66 loadbang;
#X obj 367 90 \$1 \$2;
#X obj 335 373 outlet;
#X connect 0 0 16 0;
#X connect 1 0 0 0;
#X connect 2 0 9 0;
#X connect 3 0 8 0;
#X connect 4 0 1 1;
#X connect 4 0 5 0;
#X connect 4 1 5 1;
#X connect 5 0 0 1;
#X connect 6 0 4 0;
#X connect 7 0 10 0;
#X connect 8 0 6 0;
#X connect 9 0 7 0;
#X connect 10 0 4 0;
#X connect 10 1 4 1;
#X connect 11 0 12 0;
#X connect 12 0 13 0;
#X connect 12 1 1 0;
#X connect 13 0 6 0;
#X connect 13 1 7 0;
#X connect 14 0 15 0;
#X connect 15 0 13 0;
#X coords 0 1037 1 1036 50 48 0;
