#N canvas -8 3 1920 1037 12;
#X obj 335 411 spigot;
#X obj 335 380 t b f, f 6;
#X obj 335 349 >=, f 13;
#X obj 335 318 random, f 10;
#X obj 530 66 inlet;
#X obj 447 66 inlet;
#X obj 404 287 swap, f 13;
#X obj 423 318 -;
#X obj 404 225 i;
#X obj 466 225 i;
#X obj 447 97 i;
#X obj 530 97 i;
#X obj 466 256 t b f;
#X obj 185 66 inlet;
#X obj 185 97 route set, f 25;
#X obj 185 128 unpack, f 13;
#X obj 335 473 outlet;
#X obj 383 442 spigot;
#X obj 383 380 t b f, f 6;
#X obj 422 411 == 0;
#X obj 383 473 outlet;
#X obj 367 66 loadbang;
#X obj 367 90 \$1 \$2;
#X connect 0 0 16 0;
#X connect 1 0 0 0;
#X connect 1 1 0 1;
#X connect 2 0 1 0;
#X connect 2 0 18 0;
#X connect 3 0 2 0;
#X connect 4 0 11 0;
#X connect 5 0 10 0;
#X connect 6 0 3 1;
#X connect 6 0 7 0;
#X connect 6 1 7 1;
#X connect 7 0 2 1;
#X connect 8 0 6 0;
#X connect 9 0 12 0;
#X connect 10 0 8 0;
#X connect 11 0 9 0;
#X connect 12 0 6 0;
#X connect 12 1 6 1;
#X connect 13 0 14 0;
#X connect 14 0 15 0;
#X connect 14 1 3 0;
#X connect 15 0 8 0;
#X connect 15 1 9 0;
#X connect 17 0 20 0;
#X connect 18 0 17 0;
#X connect 18 1 19 0;
#X connect 19 0 17 1;
#X connect 21 0 22 0;
#X connect 22 0 15 0;
#X coords 0 1037 1 1036 50 48 0;
