#N canvas 473 0 958 1016 12;
#X obj 75 433 vline~;
#X obj 55 91 inlet;
#X obj 57 224 select 0;
#X obj 54 353 pack 0 0;
#X obj 148 184 inlet a;
#X obj 203 184 inlet d;
#X obj 258 184 inlet s;
#X obj 313 184 inlet r;
#X obj 368 184 inlet peak;
#X obj 113 252 / 127;
#X obj 264 316 +;
#X obj 148 207 t f f;
#X obj 203 207 t f b f;
#X obj 113 275 t b f f;
#X obj 118 353 pack 0 0 0 0 0 0, f 22;
#X obj 148 161 unpack 0 0 0 0 0, f 35;
#X obj 55 114 route float set;
#X obj 170 327 * 1;
#X obj 205 322 * 1;
#X obj 75 456 outlet~;
#X msg 118 376 \$2 \$3 \, \$4 \$5 \$6;
#X obj 180 91 \$1 \$2 \$3 \$4 \$5;
#X obj 180 69 loadbang;
#X obj 157 137 print \$0-envelope: expecting float or 'set' \, got:;
#X connect 0 0 19 0;
#X connect 1 0 16 0;
#X connect 2 0 3 0;
#X connect 2 1 9 0;
#X connect 3 0 0 0;
#X connect 4 0 11 0;
#X connect 5 0 12 0;
#X connect 6 0 18 1;
#X connect 7 0 3 1;
#X connect 8 0 17 1;
#X connect 9 0 13 0;
#X connect 10 0 14 5;
#X connect 11 0 14 2;
#X connect 11 1 10 0;
#X connect 12 0 14 4;
#X connect 12 1 10 0;
#X connect 12 2 10 1;
#X connect 13 0 14 0;
#X connect 13 1 17 0;
#X connect 13 2 18 0;
#X connect 14 0 20 0;
#X connect 15 0 11 0;
#X connect 15 1 12 0;
#X connect 15 2 18 1;
#X connect 15 3 3 1;
#X connect 15 4 17 1;
#X connect 16 0 2 0;
#X connect 16 1 15 0;
#X connect 16 2 23 0;
#X connect 17 0 14 1;
#X connect 18 0 14 3;
#X connect 20 0 0 0;
#X connect 21 0 15 0;
#X connect 22 0 21 0;
