#N canvas 246 136 481 300.094 12;
#X obj 55 2 inlet, f 7;
#X obj 2 64 inlet;
#X obj 55 64 == 0;
#X obj 64 95 spigot;
#X obj 64 126 outlet;
#X obj 2 126 outlet;
#X obj 55 33 t f f, f 7;
#X obj 2 95 spigot 1;
#X text 113 5 sends the input at the left inlet to the left outlet
when the right inlet is set to 0 and to the right outlet when it is
set to a non-0 number., f 17;
#X connect 0 0 6 0;
#X connect 1 0 3 0;
#X connect 1 0 7 0;
#X connect 2 0 7 1;
#X connect 3 0 4 0;
#X connect 6 0 2 0;
#X connect 6 1 3 1;
#X connect 7 0 5 0;
