#N canvas -8 1033 1536 821 12;
#X obj 119 150 noise~;
#X obj 119 173 *~;
#X obj 119 196 bob~;
#X obj 101 271 hip~;
#X obj 200 26 inlet;
#X obj 352 130 * 2;
#X obj 290 30 inlet;
#X msg 305 97 1000 \$1;
#X obj 305 120 /;
#X msg 483 249 \$1 10;
#X obj 483 272 line~;
#X obj 342 72 mtof;
#X obj 409 132 * 4;
#X obj 382 131 * 3;
#X obj 100 238 vcf~;
#X obj 140 241 vcf~;
#X obj 207 187 / 127;
#X obj 207 210 * 10;
#X obj 183 150 envelope 10 10 0.7 200 1;
#X obj 520 120 inlet;
#X obj 151 363 outlet~;
#N canvas 786 166 821 703 writer 0;
#X obj 41 159 delwrite~ \$0-resonate 100;
#X obj 31 25 inlet~;
#X obj 51 205 outlet~;
#X obj 175 96 *~;
#X obj 174 37 delread4~ \$0-resonate;
#X obj 174 59 lop~ 15000;
#X obj 286 67 inlet~;
#X obj 229 202 block~ 1;
#X obj 170 8 inlet;
#X connect 1 0 0 0;
#X connect 3 0 0 0;
#X connect 3 0 2 0;
#X connect 4 0 5 0;
#X connect 5 0 3 0;
#X connect 6 0 3 1;
#X connect 8 0 4 0;
#X restore 111 309 pd writer;
#X obj 508 154 clip 0 1;
#X obj 508 178 * 0.1;
#X obj 508 202 + 0.89;
#X connect 0 0 1 0;
#X connect 1 0 2 0;
#X connect 2 0 14 0;
#X connect 2 0 15 0;
#X connect 3 0 21 0;
#X connect 4 0 11 0;
#X connect 5 0 3 1;
#X connect 6 0 16 0;
#X connect 6 0 18 0;
#X connect 7 0 8 0;
#X connect 8 0 21 1;
#X connect 9 0 10 0;
#X connect 10 0 21 2;
#X connect 11 0 7 0;
#X connect 11 0 2 1;
#X connect 11 0 5 0;
#X connect 11 0 13 0;
#X connect 11 0 12 0;
#X connect 12 0 15 1;
#X connect 13 0 14 1;
#X connect 14 0 3 0;
#X connect 15 0 3 0;
#X connect 16 0 17 0;
#X connect 17 0 14 2;
#X connect 17 0 15 2;
#X connect 18 0 1 1;
#X connect 18 0 2 2;
#X connect 19 0 22 0;
#X connect 21 0 20 0;
#X connect 22 0 23 0;
#X connect 23 0 24 0;
#X connect 24 0 9 0;
