#N canvas 389 134 1920 1037 12;
#N canvas 734 98 816 858 clock 0;
#X obj 39 139 metro;
#X obj 39 161 i;
#X obj 39 19 inlet bpm;
#X obj 67 161 + 1;
#X msg 101 185 0;
#X obj 39 185 t f f;
#X obj 135 11 r bpm;
#X msg 66 110 tempo \$1 perminute;
#X obj 42 58 t b f;
#X obj 64 228 select 0 49 99 149, f 25;
#X obj 208 24 r stop-start;
#X obj 66 85 * 200;
#X obj 91 344 outlet;
#X obj 117 276 + 1;
#X obj 19 303 select 1;
#X obj 89 300 t f f;
#X obj 89 276 i 1;
#X msg 19 327 1;
#X obj 219 75 tgl 19 0 empty empty empty 0 -10 0 12 #fcfcfc #000000 #000000 0 1;
#X obj 19 279 == 16;
#X obj 135 59 line;
#X msg 135 35 \$1 0;
#X obj 223 194 s counter;
#X obj 101 161 select 199;
#X connect 0 0 1 0;
#X connect 1 0 3 0;
#X connect 1 0 5 0;
#X connect 2 0 8 0;
#X connect 3 0 1 1;
#X connect 4 0 1 1;
#X connect 5 0 9 0;
#X connect 5 0 22 0;
#X connect 5 1 23 0;
#X connect 6 0 21 0;
#X connect 7 0 0 0;
#X connect 8 0 0 0;
#X connect 8 1 11 0;
#X connect 9 0 16 0;
#X connect 9 1 16 0;
#X connect 9 2 16 0;
#X connect 9 3 16 0;
#X connect 10 0 0 0;
#X connect 11 0 7 0;
#X connect 13 0 16 1;
#X connect 14 0 17 0;
#X connect 15 0 12 0;
#X connect 15 1 19 0;
#X connect 16 0 13 0;
#X connect 16 0 15 0;
#X connect 17 0 16 1;
#X connect 18 0 0 0;
#X connect 19 0 14 0;
#X connect 20 0 8 0;
#X connect 21 0 20 0;
#X connect 23 0 4 0;
#X restore 78 98 pd clock;
#N canvas -7 0 958 1028 obstacles 0;
#X obj 144 114 inlet generate;
#X obj 153 194 until;
#X obj 152 217 random 2;
#X obj 158 168 4;
#X obj 98 317 s obstacles;
#X obj 294 245 list prepend;
#X obj 406 246 t l;
#X obj 228 273 list append;
#X obj 144 138 t b b b;
#X obj 228 298 unpack 0 0 0 0;
#X obj 228 322 +;
#X obj 244 360 +;
#X obj 288 324 +;
#X obj 244 384 == 4;
#X obj 241 420 s lightning-bolt!;
#X connect 0 0 8 0;
#X connect 1 0 2 0;
#X connect 2 0 5 0;
#X connect 2 0 4 0;
#X connect 3 0 1 0;
#X connect 5 0 6 0;
#X connect 5 0 7 1;
#X connect 6 0 5 1;
#X connect 7 0 9 0;
#X connect 8 0 7 0;
#X connect 8 1 3 0;
#X connect 8 2 5 1;
#X connect 9 0 10 0;
#X connect 9 1 10 1;
#X connect 9 2 12 0;
#X connect 9 3 12 1;
#X connect 10 0 11 0;
#X connect 11 0 13 0;
#X connect 12 0 11 1;
#X connect 13 0 14 0;
#X restore 96 63 pd obstacles;
#X obj 20 35 loadbang;
#X obj 82 488 dac~;
#N canvas 894 225 912 810 snare 0;
#X obj 155 7 inlet trig;
#X obj 74 367 outlet~;
#N canvas 431 258 450 300 amp_envelope 0;
#X obj 17 16 inlet;
#X msg 17 40 1 0.5 \, 0 \$1 0.5;
#X obj 17 64 vline~;
#X obj 17 88 *~;
#X obj 17 112 outlet~;
#X connect 0 0 1 0;
#X connect 1 0 2 0;
#X connect 2 0 3 0;
#X connect 2 0 3 1;
#X connect 3 0 4 0;
#X restore 107 88 pd amp_envelope;
#X obj 116 140 noise~;
#X obj 120 197 *~;
#X obj 116 164 hip~ 100;
#X obj 102 238 vcf~ 3;
#N canvas 431 258 450 300 filter_envelope 0;
#X obj 17 16 inlet;
#X msg 17 40 1 0.5 \, 0 \$1 0.5;
#X obj 17 64 vline~;
#X obj 17 88 *~;
#X obj 17 112 outlet~;
#X connect 0 0 1 0;
#X connect 1 0 2 0;
#X connect 2 0 3 0;
#X connect 2 0 3 1;
#X connect 3 0 4 0;
#X restore 213 143 pd filter_envelope;
#X obj 213 167 *~ 8000;
#X obj 213 191 +~ 100;
#X obj 277 169 *~ 5000;
#X obj 277 193 +~ 200;
#X obj 250 9 inlet decay;
#X obj 159 241 vcf~ 4;
#X obj 82 137 *~;
#X obj 34 67 *~ 30;
#X obj 35 117 osc~;
#X obj 61 170 *~;
#X obj 34 43 osc~ 50;
#X obj 214 62 f 150;
#X obj 35 92 +~ 250;
#X obj 151 358 samphold~;
#X obj 222 337 phasor~;
#X obj 306 219 noise~;
#X obj 298 321 +~ 1;
#X obj 297 298 lop~ 1;
#X obj 303 245 samphold~;
#X obj 303 269 lop~ 1;
#X obj 298 369 +~ 4000;
#X obj 298 345 *~ 1000;
#X obj 76 314 *~ 0.2;
#X obj 212 39 spigot;
#X obj 356 12 inlet enable;
#X obj 356 36 switch~;
#X obj 362 213 phasor~ 0.5;
#X connect 0 0 31 0;
#X connect 2 0 4 1;
#X connect 2 0 14 0;
#X connect 2 0 14 1;
#X connect 3 0 5 0;
#X connect 4 0 6 0;
#X connect 4 0 13 0;
#X connect 5 0 4 0;
#X connect 6 0 30 0;
#X connect 7 0 8 0;
#X connect 7 0 10 0;
#X connect 8 0 9 0;
#X connect 9 0 6 1;
#X connect 10 0 11 0;
#X connect 11 0 13 1;
#X connect 12 0 19 1;
#X connect 13 0 30 0;
#X connect 14 0 17 1;
#X connect 15 0 20 0;
#X connect 16 0 17 0;
#X connect 17 0 6 0;
#X connect 17 0 13 0;
#X connect 18 0 15 0;
#X connect 19 0 2 0;
#X connect 19 0 7 0;
#X connect 20 0 16 0;
#X connect 21 0 1 0;
#X connect 22 0 21 1;
#X connect 23 0 26 0;
#X connect 24 0 29 0;
#X connect 25 0 24 0;
#X connect 26 0 27 0;
#X connect 27 0 25 0;
#X connect 28 0 22 0;
#X connect 29 0 28 0;
#X connect 30 0 21 0;
#X connect 31 0 19 0;
#X connect 32 0 31 1;
#X connect 32 0 33 0;
#X connect 34 0 26 1;
#X restore 151 346 pd snare;
#X obj 393 149 vsl 19 162 0 1 0 0 empty empty empty 0 -9 0 12 #fcfcfc #000000 #000000 0 1;
#X msg 391 321 \$1 10;
#X obj 391 345 line~;
#X obj 105 383 *~;
#X obj 77 277 t b;
#X obj 48 134 select 1 2 3 4 5 6 7 8 9 10 11 12 13 14 15 16;
#X obj 112 233 spigot;
#X obj 107 406 clip~ -1 1;
#N canvas 108 121 1062 776 randomize 0;
#X obj 158 26 inlet generate;
#X obj 104 150 outlet;
#X obj 106 106 coin 1 4;
#X obj 187 161 outlet;
#X obj 20 147 outlet;
#X obj 36 116 == 0;
#X obj 36 92 coin 1 6;
#X obj 249 110 coin 1 4;
#X obj 249 134 outlet;
#X obj 336 92 coin 2 7;
#X obj 346 130 outlet;
#X obj 180 106 coin 1 10;
#X obj 212 61 select 1;
#X obj 420 93 coin 2 15;
#X obj 420 117 outlet;
#X connect 0 0 2 0;
#X connect 0 0 6 0;
#X connect 0 0 7 0;
#X connect 0 0 9 0;
#X connect 0 0 11 0;
#X connect 0 0 13 0;
#X connect 2 0 1 0;
#X connect 5 0 4 0;
#X connect 6 0 5 0;
#X connect 7 0 8 0;
#X connect 9 0 10 0;
#X connect 9 0 12 0;
#X connect 11 0 3 0;
#X connect 12 0 11 0;
#X connect 13 0 14 0;
#X restore 116 196 pd randomize;
#X f 14;
#X obj 390 95 loadbang;
#X msg 390 119 0.5;
#X obj 164 242 spigot;
#X obj 167 274 t b;
#X obj 37 235 spigot;
#X obj 43 181 t b b;
#N canvas 599 55 1110 870 cymbal 0;
#X obj 140 54 noise~;
#X floatatom 392 85 5 0 0 0 - - - 0;
#N canvas 0 23 858 387 six_pulse_oscs 0;
#X obj 37 37 inlet;
#X obj 26 156 phasor~;
#X obj 26 177 expr~ $v1 > 0.55;
#X obj 26 232 *~ 0.9;
#X obj 130 121 * 1.342;
#X obj 131 156 phasor~;
#X obj 131 177 expr~ $v1 > 0.55;
#X obj 235 156 phasor~;
#X obj 235 177 expr~ $v1 > 0.55;
#X obj 340 156 phasor~;
#X obj 340 177 expr~ $v1 > 0.55;
#X obj 444 156 phasor~;
#X obj 444 177 expr~ $v1 > 0.55;
#X obj 549 156 phasor~;
#X obj 549 177 expr~ $v1 > 0.55;
#X obj 234 123 * 1.2312;
#X obj 341 121 * 1.6532;
#X obj 444 122 * 1.9523;
#X obj 548 120 * 2.1523;
#X obj 26 253 outlet~;
#X connect 0 0 4 0;
#X connect 0 0 18 0;
#X connect 0 0 17 0;
#X connect 0 0 16 0;
#X connect 0 0 15 0;
#X connect 0 0 1 0;
#X connect 1 0 2 0;
#X connect 2 0 3 0;
#X connect 3 0 19 0;
#X connect 4 0 5 0;
#X connect 5 0 6 0;
#X connect 6 0 3 0;
#X connect 7 0 8 0;
#X connect 8 0 3 0;
#X connect 9 0 10 0;
#X connect 10 0 3 0;
#X connect 11 0 12 0;
#X connect 12 0 3 0;
#X connect 13 0 14 0;
#X connect 14 0 3 0;
#X connect 15 0 7 0;
#X connect 16 0 9 0;
#X connect 17 0 11 0;
#X connect 18 0 13 0;
#X restore 392 105 pd six_pulse_oscs;
#X obj 140 256 *~;
#X floatatom 350 67 5 0 0 0 - - - 0;
#X obj 307 64 bng 15 250 50 0 empty empty empty 17 7 0 10 #fcfcfc #000000 #000000;
#X obj 140 115 *~;
#N canvas 0 23 305 203 vol_env 0;
#X obj 74 76 f 250;
#X obj 72 43 inlet;
#X obj 128 38 inlet;
#X obj 76 126 vline~;
#X obj 76 147 outlet~;
#X msg 76 105 1 2 \, 0.4 \$1 2 \, 0 \$1 \$1;
#X connect 0 0 5 0;
#X connect 1 0 0 0;
#X connect 2 0 0 1;
#X connect 3 0 4 0;
#X connect 5 0 3 0;
#X restore 158 232 pd vol_env;
#N canvas 0 23 305 203 noise_env 0;
#X obj 72 43 inlet;
#X obj 128 38 inlet;
#X obj 68 141 line~;
#X msg 69 117 1 \, 0.6 \$1;
#X obj 87 72 f 250;
#X obj 87 93 * 0.5;
#X obj 71 171 outlet~;
#X connect 0 0 4 0;
#X connect 1 0 4 1;
#X connect 2 0 6 0;
#X connect 3 0 2 0;
#X connect 4 0 5 0;
#X connect 5 0 3 0;
#X restore 177 100 pd noise_env;
#X obj 176 273 delread~ \$0-del 5;
#X obj 2 287 delwrite~ \$0-del 10;
#N canvas 0 23 450 300 filters 0;
#X obj 36 37 inlet~;
#X obj 43 248 biquad~ 1.86507 -0.892661 0.894294 -1.78859 0.894294;
#X obj 38 124 biquad~ 0.88843 -0.568945 0.614344 -1.22869 0.614344;
#X obj 42 201 biquad~ 0.88843 -0.568945 0.614344 -1.22869 0.614344;
#X obj 42 81 biquad~ 0.638282 -0.176456 0.134544 0.269087 0.134544 ;
#X text 214 106 6800Hz resonant hipass \, Q=1.5;
#X text 210 53 7000Hz resonant lowpass \, Q=0.6;
#X text 220 182 6800Hz resonant hipass \, Q=1.5;
#X text 228 230 1200Hz resonant hipass \, Q=1.5;
#X obj 43 269 outlet~;
#X connect 0 0 4 0;
#X connect 1 0 9 0;
#X connect 2 0 3 0;
#X connect 3 0 1 0;
#X connect 4 0 2 0;
#X restore 140 152 pd filters;
#X obj 309 36 inlet;
#X obj 351 40 inlet;
#X obj 395 41 inlet;
#X text 440 45 basefreq;
#X text 347 22 dur;
#X text 269 19 trig;
#X obj 140 347 outlet~;
#X obj 392 126 *~ 1;
#X obj 440 63 loadbang;
#X msg 440 84 220;
#X obj 217 198 rev1~;
#X msg 426 166 80;
#X obj 140 313 *~ 0.5;
#X obj 475 156 inlet;
#X obj 430 209 spigot;
#X obj 513 193 inlet;
#X obj 459 265 switch~;
#X connect 0 0 6 0;
#X connect 1 0 2 0;
#X connect 2 0 19 0;
#X connect 3 0 10 0;
#X connect 3 0 24 0;
#X connect 4 0 7 1;
#X connect 4 0 8 1;
#X connect 5 0 7 0;
#X connect 5 0 8 0;
#X connect 6 0 11 0;
#X connect 7 0 3 1;
#X connect 8 0 6 1;
#X connect 9 0 24 0;
#X connect 11 0 22 0;
#X connect 11 0 3 0;
#X connect 12 0 26 0;
#X connect 13 0 4 0;
#X connect 14 0 1 0;
#X connect 19 0 11 0;
#X connect 20 0 21 0;
#X connect 20 0 23 0;
#X connect 21 0 1 0;
#X connect 22 0 3 0;
#X connect 23 0 22 1;
#X connect 24 0 18 0;
#X connect 25 0 22 1;
#X connect 26 0 5 0;
#X connect 27 0 26 1;
#X connect 27 0 28 0;
#X restore 222 348 pd cymbal;
#X obj 289 229 spigot;
#X floatatom 183 298 5 0 0 0 - - - 0;
#X msg 29 61 120;
#N canvas 779 111 953 730 parry 0;
#X obj 235 178 r parry-check;
#X obj 197 216 spigot;
#X obj 250 217 spigot;
#X obj 16 25 r counter;
#X obj 35 202 &&;
#X obj 155 90 + 5;
#X obj 192 93 - 5;
#X obj 249 331 s parry-result;
#X obj 29 164 <;
#X obj 62 164 >;
#X msg 250 241 1;
#X obj 309 213 spigot;
#X msg 309 237 0;
#X obj 104 208 &&;
#X obj 98 170 <;
#X obj 131 170 >;
#X obj 220 93 + 10;
#X obj 255 95 - 10;
#X obj 225 6 r lightning-bolt!;
#X obj 13 60 t f f f f f, f 25;
#X msg 197 240 1;
#X obj 233 295 +;
#X obj 250 265 t b f;
#X obj 79 291 == 0;
#X obj 79 267 ||;
#X obj 104 233 t b f;
#X obj 225 30 pipe;
#X obj 369 7 r bpm;
#N canvas 26 26 450 300 n 0;
#X obj 74 18 inlet;
#X obj 74 42 / 200;
#X obj 74 66 wrap;
#X obj 74 90 * 200;
#X obj 74 114 outlet;
#X obj 137 23 inlet;
#X connect 0 0 1 0;
#X connect 1 0 2 0;
#X connect 2 0 3 0;
#X connect 3 0 4 0;
#X connect 5 0 1 1;
#X connect 5 0 3 1;
#X restore 131 122 pd n;
#N canvas 26 26 450 300 n 0;
#X obj 74 18 inlet;
#X obj 74 42 / 200;
#X obj 74 66 wrap;
#X obj 74 90 * 200;
#X obj 74 114 outlet;
#X obj 137 23 inlet;
#X connect 0 0 1 0;
#X connect 1 0 2 0;
#X connect 2 0 3 0;
#X connect 3 0 4 0;
#X connect 5 0 1 1;
#X connect 5 0 3 1;
#X restore 173 122 pd n;
#N canvas 26 26 450 300 n 0;
#X obj 74 18 inlet;
#X obj 74 42 / 200;
#X obj 74 66 wrap;
#X obj 74 90 * 200;
#X obj 74 114 outlet;
#X obj 137 23 inlet;
#X connect 0 0 1 0;
#X connect 1 0 2 0;
#X connect 2 0 3 0;
#X connect 3 0 4 0;
#X connect 5 0 1 1;
#X connect 5 0 3 1;
#X restore 210 122 pd n;
#N canvas 26 26 450 300 n 0;
#X obj 74 18 inlet;
#X obj 74 42 / 200;
#X obj 74 66 wrap;
#X obj 74 90 * 200;
#X obj 74 114 outlet;
#X obj 137 23 inlet;
#X connect 0 0 1 0;
#X connect 1 0 2 0;
#X connect 2 0 3 0;
#X connect 3 0 4 0;
#X connect 5 0 1 1;
#X connect 5 0 3 1;
#X restore 247 125 pd n;
#X obj 369 31 * 0.25;
#X obj 369 55 / 60;
#X msg 369 79 1000 \$1;
#X obj 369 103 /;
#X obj 225 54 select 1;
#X connect 0 0 1 0;
#X connect 0 0 2 0;
#X connect 0 0 11 0;
#X connect 1 0 20 0;
#X connect 2 0 10 0;
#X connect 3 0 19 0;
#X connect 4 0 1 1;
#X connect 4 0 24 0;
#X connect 5 0 28 0;
#X connect 6 0 29 0;
#X connect 8 0 4 0;
#X connect 9 0 4 1;
#X connect 10 0 22 0;
#X connect 11 0 12 0;
#X connect 12 0 7 0;
#X connect 13 0 2 1;
#X connect 13 0 25 0;
#X connect 14 0 13 0;
#X connect 15 0 13 1;
#X connect 16 0 30 0;
#X connect 17 0 31 0;
#X connect 18 0 26 0;
#X connect 19 0 8 0;
#X connect 19 1 9 0;
#X connect 19 2 14 0;
#X connect 19 3 15 0;
#X connect 20 0 21 0;
#X connect 21 0 7 0;
#X connect 22 0 21 0;
#X connect 22 1 21 1;
#X connect 23 0 11 1;
#X connect 24 0 23 0;
#X connect 25 0 24 0;
#X connect 25 1 24 1;
#X connect 26 0 36 0;
#X connect 27 0 32 0;
#X connect 28 0 8 1;
#X connect 29 0 9 1;
#X connect 30 0 14 1;
#X connect 31 0 15 1;
#X connect 32 0 33 0;
#X connect 33 0 34 0;
#X connect 34 0 35 0;
#X connect 35 0 26 1;
#X restore 192 82 pd parry;
#N canvas 953 0 958 1028 bass 0;
#X obj 70 255 mtof;
#X obj 26 45 inlet;
#X obj 51 456 outlet~;
#X obj 69 208 random_list;
#X obj 89 149 loadbang;
#X obj 70 233 + 30;
#X obj 52 282 osc~;
#X obj 52 306 +~ 1;
#X obj 52 330 *~;
#X obj 51 377 osc~;
#X obj 52 354 *~;
#X msg 110 253 127;
#X obj 112 307 *~ 2;
#X obj 112 283 envelope 5 10 0.5 0 1;
#X obj 30 80 % 4;
#X obj 126 456 outlet~;
#X obj 274 237 coin 1 4;
#X obj 274 261 select 1;
#X obj 277 289 coin 1 2;
#X obj 50 435 *~;
#X obj 301 319 == 0;
#X obj 127 435 *~;
#X obj 347 316 == 0;
#X msg 359 368 \$1 50;
#X obj 352 390 line~;
#X msg 276 345 \$1 50;
#X obj 269 367 line~;
#X obj 31 117 select 1 3 0;
#X obj 405 289 coin 1 3;
#X obj 51 401 *~ 0.5;
#X msg 71 183 1 3 6 8 10;
#X obj 227 125 inlet enable;
#X obj 227 149 select 1 0;
#X msg 227 173 0.5;
#X msg 261 172 0;
#X obj 154 88 spigot;
#X obj 167 153 switch~;
#X connect 0 0 6 0;
#X connect 0 0 8 1;
#X connect 1 0 35 0;
#X connect 3 0 5 0;
#X connect 4 0 30 0;
#X connect 5 0 0 0;
#X connect 6 0 7 0;
#X connect 7 0 8 0;
#X connect 8 0 10 0;
#X connect 9 0 29 0;
#X connect 10 0 9 0;
#X connect 11 0 13 0;
#X connect 12 0 10 1;
#X connect 13 0 12 0;
#X connect 14 0 27 0;
#X connect 16 0 17 0;
#X connect 17 0 18 0;
#X connect 17 1 22 0;
#X connect 18 0 20 0;
#X connect 18 0 25 0;
#X connect 19 0 2 0;
#X connect 20 0 23 0;
#X connect 21 0 15 0;
#X connect 22 0 23 0;
#X connect 22 0 25 0;
#X connect 23 0 24 0;
#X connect 24 0 21 1;
#X connect 25 0 26 0;
#X connect 26 0 19 1;
#X connect 27 0 3 0;
#X connect 27 0 11 0;
#X connect 27 0 16 0;
#X connect 27 1 3 0;
#X connect 27 1 16 0;
#X connect 27 2 28 0;
#X connect 28 0 25 0;
#X connect 28 0 23 0;
#X connect 29 0 19 0;
#X connect 29 0 21 0;
#X connect 30 0 3 0;
#X connect 31 0 32 0;
#X connect 31 0 35 1;
#X connect 31 0 36 0;
#X connect 32 0 33 0;
#X connect 32 1 34 0;
#X connect 33 0 29 1;
#X connect 34 0 29 1;
#X connect 35 0 14 0;
#X restore 292 386 pd bass;
#N canvas -24 28 1920 1037 kick 0;
#X obj 159 39 inlet trig;
#X obj 166 193 phasor~;
#X obj 166 217 expr~ $v1 > 0.5;
#X obj 165 289 *~;
#X obj 171 345 clip~ -1 1;
#X obj 171 369 outlet~;
#N canvas 26 26 884 547 amplitude_envelope 0;
#X obj 102 129 vline~;
#X obj 102 153 *~;
#X obj 121 48 inlet;
#X obj 102 177 outlet~;
#X msg 102 105 0.5 \, 1 5 \, 0.5 60 5 \, 0 \$1 65;
#X connect 0 0 1 0;
#X connect 0 0 1 1;
#X connect 1 0 3 0;
#X connect 2 0 4 0;
#X connect 4 0 0 0;
#X restore 10 212 pd amplitude_envelope;
#N canvas 208 208 816 643 pitch_envlepe 0;
#X obj 105 216 mtof~;
#X obj 105 168 *~ 80;
#X obj 105 240 outlet~;
#X obj 101 46 inlet;
#X obj 110 115 vline~;
#X obj 110 139 *~;
#X obj 105 192 +~ 29;
#X msg 110 91 1 \, 0.5 5 \, 0 \$1 5;
#X connect 0 0 2 0;
#X connect 1 0 6 0;
#X connect 3 0 7 0;
#X connect 4 0 5 0;
#X connect 4 0 5 1;
#X connect 5 0 1 0;
#X connect 6 0 0 0;
#X connect 7 0 4 0;
#X restore 172 118 pd pitch_envlepe;
#X obj 316 42 inlet decay;
#X obj 440 75 inlet pitch;
#X obj 176 77 f 300;
#X obj 567 73 inlet filter;
#X obj 191 152 *~ 0.9;
#X obj 691 88 inlet q;
#X obj 166 241 vcf~ 0.5;
#X obj 781 93 inlet level;
#X obj 165 313 *~ 2;
#X obj 311 188 *~ 1.5;
#X connect 0 0 10 0;
#X connect 1 0 2 0;
#X connect 2 0 14 0;
#X connect 3 0 16 0;
#X connect 4 0 5 0;
#X connect 6 0 3 0;
#X connect 7 0 12 0;
#X connect 8 0 10 1;
#X connect 9 0 12 1;
#X connect 10 0 6 0;
#X connect 10 0 7 0;
#X connect 11 0 17 1;
#X connect 12 0 1 0;
#X connect 12 0 17 0;
#X connect 13 0 14 2;
#X connect 14 1 3 1;
#X connect 15 0 16 1;
#X connect 16 0 4 0;
#X connect 17 0 14 1;
#X restore 91 346 pd kick;
#X obj 120 428 rev2~ 100 80 1000 50;
#X obj 255 264 spigot;
#X obj 221 230 t b b;
#X msg 255 288 100;
#X msg 285 311 250;
#X obj 288 288 t b b;
#X obj 123 452 *~ 0.22;
#X obj 189 454 *~ 0.22;
#X obj 95 8 % 4;
#X obj 93 35 select 0;
#X obj 297 106 i;
#X obj 325 106 + 1;
#X obj 292 455 *~;
#X obj 331 460 *~;
#X floatatom 134 307 5 0 0 0 - - - 0;
#X floatatom 95 307 5 0 0 0 - - - 0;
#X obj 239 196 spigot;
#X obj 361 43 r start-game;
#X obj 367 322 tgl 19 0 empty empty empty 0 -10 0 12 #fcfcfc #000000 #000000 0 1;
#X obj 345 320 tgl 19 0 empty empty empty 0 -10 0 12 #fcfcfc #000000 #000000 0 1;
#X obj 323 319 tgl 19 0 empty empty empty 0 -10 0 12 #fcfcfc #000000 #000000 0 1;
#X obj 285 84 spigot;
#X obj 482 184 loadbang;
#X connect 0 0 10 0;
#X connect 0 0 35 0;
#X connect 0 0 25 0;
#X connect 2 0 23 0;
#X connect 4 0 8 0;
#X connect 5 0 6 0;
#X connect 6 0 7 0;
#X connect 7 0 8 1;
#X connect 7 0 40 1;
#X connect 7 0 39 1;
#X connect 8 0 12 0;
#X connect 9 0 26 0;
#X connect 10 0 19 0;
#X connect 10 0 48 0;
#X connect 10 1 16 0;
#X connect 10 2 16 0;
#X connect 10 2 20 0;
#X connect 10 3 16 0;
#X connect 10 4 18 0;
#X connect 10 4 16 0;
#X connect 10 6 20 0;
#X connect 10 7 43 0;
#X connect 10 8 9 0;
#X connect 10 8 43 0;
#X connect 10 9 43 0;
#X connect 10 10 29 0;
#X connect 10 12 9 0;
#X connect 10 13 11 0;
#X connect 10 14 32 0;
#X connect 10 15 21 0;
#X connect 11 0 17 0;
#X connect 12 0 3 0;
#X connect 12 0 3 1;
#X connect 12 0 27 0;
#X connect 13 0 18 1;
#X connect 13 1 11 1;
#X connect 13 2 16 1;
#X connect 13 3 21 1;
#X connect 13 4 28 1;
#X connect 13 5 43 1;
#X connect 14 0 15 0;
#X connect 15 0 5 0;
#X connect 16 0 17 0;
#X connect 17 0 4 0;
#X connect 18 0 9 0;
#X connect 19 0 9 0;
#X connect 19 0 17 0;
#X connect 19 1 13 0;
#X connect 20 0 8 0;
#X connect 21 0 20 0;
#X connect 22 0 4 1;
#X connect 23 0 0 0;
#X connect 25 0 39 0;
#X connect 25 1 40 0;
#X connect 26 0 8 0;
#X connect 27 0 33 0;
#X connect 27 1 34 0;
#X connect 28 0 30 0;
#X connect 29 0 20 0;
#X connect 29 1 28 0;
#X connect 30 0 20 1;
#X connect 31 0 20 1;
#X connect 32 0 20 0;
#X connect 32 1 31 0;
#X connect 33 0 3 0;
#X connect 34 0 3 1;
#X connect 35 0 36 0;
#X connect 36 0 1 0;
#X connect 37 0 38 0;
#X connect 38 0 37 1;
#X connect 39 0 3 0;
#X connect 40 0 3 1;
#X connect 41 0 26 5;
#X connect 42 0 26 1;
#X connect 43 0 20 0;
#X connect 43 0 30 0;
#X connect 44 0 48 1;
#X connect 45 0 25 1;
#X connect 46 0 20 4;
#X connect 47 0 4 2;
#X connect 48 0 37 0;
#X connect 49 0 47 0;
#X connect 49 0 46 0;
#X connect 49 0 45 0;
