#N canvas 953 0 958 1028 12;
#N canvas 796 133 816 858 clock 0;
#X obj 39 139 metro;
#X obj 39 161 i;
#X obj 41 20 inlet bpm;
#X obj 77 341 outlet;
#X obj 67 161 + 1;
#X obj 108 171 select 1;
#X msg 108 195 0;
#X obj 39 185 t f f;
#X obj 147 20 r bpm;
#X msg 73 108 tempo \$1 perminute;
#X obj 41 44 t b f;
#X obj 108 147 >= 199;
#X obj 80 226 select 0 49 99 149, f 25;
#X obj 208 24 r stop-start;
#X obj 73 84 * 200;
#X obj 105 252 + 1;
#X obj 7 279 select 1;
#X obj 77 276 t f f;
#X obj 77 252 i 1;
#X msg 7 303 1;
#X obj 7 255 == 4;
#X obj 215 329 outlet;
#X obj 241 261 + 1;
#X obj 143 288 select 1;
#X obj 213 285 t f f;
#X obj 213 261 i 1;
#X msg 143 312 1;
#X obj 143 264 == 16;
#X obj 156 75 tgl 19 0 empty empty empty 0 -10 0 12 #fcfcfc #000000 #000000 0 1;
#X connect 0 0 1 0;
#X connect 1 0 4 0;
#X connect 1 0 7 0;
#X connect 2 0 10 0;
#X connect 4 0 1 1;
#X connect 5 0 6 0;
#X connect 6 0 1 1;
#X connect 7 0 12 0;
#X connect 7 1 11 0;
#X connect 8 0 10 0;
#X connect 9 0 0 0;
#X connect 10 0 0 0;
#X connect 10 1 14 0;
#X connect 11 0 5 0;
#X connect 12 0 18 0;
#X connect 12 0 25 0;
#X connect 12 1 25 0;
#X connect 12 2 25 0;
#X connect 12 3 25 0;
#X connect 13 0 0 0;
#X connect 14 0 9 0;
#X connect 15 0 18 1;
#X connect 16 0 19 0;
#X connect 17 0 3 0;
#X connect 17 1 20 0;
#X connect 18 0 15 0;
#X connect 18 0 17 0;
#X connect 19 0 18 1;
#X connect 20 0 16 0;
#X connect 22 0 25 1;
#X connect 23 0 26 0;
#X connect 24 0 21 0;
#X connect 24 1 27 0;
#X connect 25 0 22 0;
#X connect 25 0 24 0;
#X connect 26 0 25 1;
#X connect 27 0 23 0;
#X connect 28 0 0 0;
#X restore 22 140 pd clock;
#N canvas -7 0 958 1028 obstacles 0;
#X obj 46 26 inlet generate;
#X obj 59 117 until;
#X obj 62 139 random 2;
#X obj 69 89 4;
#X obj 258 94 t f f;
#X obj 257 144 spigot;
#X obj 291 120 >> 0;
#X text 254 190 [until] is very unsafe \, this ensures it doesn't get a value less than 0, f 24;
#X obj 258 66 r number-of-lanes;
#X obj 309 152 select 0;
#X obj 51 280 print number-of-lanes: invalid number (should be > 0);
#X obj 63 180 s obstacles;
#X connect 0 0 3 0;
#X connect 1 0 2 0;
#X connect 2 0 11 0;
#X connect 3 0 1 0;
#X connect 4 0 5 0;
#X connect 4 1 6 0;
#X connect 5 0 3 1;
#X connect 6 0 5 1;
#X connect 6 0 9 0;
#X connect 8 0 4 0;
#X connect 9 0 10 0;
#X restore 9 482 pd obstacles;
#X obj 23 85 loadbang;
#N canvas 999 196 686 823 drum 0;
#X obj 26 39 inlet trig;
#X obj 123 39 inlet level;
#X obj 21 188 mtof~;
#X obj 21 212 phasor~;
#X obj 21 236 expr~ $v1 > 0.5;
#X obj 19 262 *~;
#X obj 236 33 bng 19 250 50 0 empty empty empty 0 -10 0 12 #fcfcfc #000000 #000000;
#X obj 162 118 envelope 5 80 0 0 1;
#X obj 181 237 mtof;
#X obj 20 316 clip~ -1 1;
#X obj 20 340 outlet~;
#X obj 233 71 inlet filter;
#X obj 79 81 64;
#X obj 89 200 osc~;
#X obj 21 164 +~ 20;
#X obj 21 117 envelope 5 20 0 0 1;
#X obj 21 140 *~ 40;
#X obj 19 286 lop~ 1000;
#X connect 0 0 12 0;
#X connect 1 0 12 1;
#X connect 2 0 3 0;
#X connect 2 0 13 0;
#X connect 3 0 4 0;
#X connect 4 0 5 0;
#X connect 5 0 17 0;
#X connect 6 0 12 0;
#X connect 7 0 5 1;
#X connect 8 0 17 1;
#X connect 9 0 10 0;
#X connect 11 0 8 0;
#X connect 12 0 7 0;
#X connect 12 0 15 0;
#X connect 13 0 5 0;
#X connect 14 0 2 0;
#X connect 15 0 16 0;
#X connect 16 0 14 0;
#X connect 17 0 9 0;
#X restore 63 338 pd drum;
#X obj 157 472 dac~;
#N canvas 18 59 912 810 snare 0;
#X obj 26 39 inlet trig;
#X obj 123 39 inlet level;
#X obj 21 188 mtof~;
#X obj 21 212 phasor~;
#X obj 21 236 expr~ $v1 > 0.5;
#X obj 19 262 *~;
#X obj 236 33 bng 19 250 50 0 empty empty empty 0 -10 0 12 #fcfcfc #000000 #000000;
#X obj 94 163 mtof;
#X obj 56 305 clip~ -1 1;
#X obj 60 377 outlet~;
#X obj 233 71 inlet filter;
#X obj 79 81 64;
#X obj 21 140 *~ 55;
#X obj 21 164 +~ 35;
#X obj 21 117 envelope 5 7 0 0 1;
#X obj 162 118 envelope 5 25 0 0 1;
#X obj 168 184 noise~;
#X obj 169 264 *~;
#X obj 157 295 *~ 1;
#X obj 307 142 *~;
#X obj 168 208 hip~ 150;
#X obj 307 118 envelope 5 100 0 0 1;
#X obj 64 346 samphold~;
#X obj 220 308 phasor~ 1500;
#X obj 270 274 mtof;
#X obj 289 230 inlet bitcrush;
#X connect 0 0 11 0;
#X connect 1 0 11 1;
#X connect 2 0 3 0;
#X connect 3 0 4 0;
#X connect 4 0 5 0;
#X connect 5 0 8 0;
#X connect 6 0 11 0;
#X connect 8 0 22 0;
#X connect 10 0 7 0;
#X connect 11 0 14 0;
#X connect 11 0 15 0;
#X connect 11 0 21 0;
#X connect 12 0 13 0;
#X connect 13 0 2 0;
#X connect 14 0 12 0;
#X connect 15 0 5 1;
#X connect 16 0 20 0;
#X connect 17 0 18 0;
#X connect 18 0 8 0;
#X connect 19 0 17 1;
#X connect 20 0 17 0;
#X connect 21 0 19 0;
#X connect 21 0 19 1;
#X connect 22 0 9 0;
#X connect 23 0 22 1;
#X connect 24 0 23 0;
#X connect 25 0 24 0;
#X restore 126 338 pd snare;
#X obj 389 160 vsl 19 162 0 1 0 0 empty empty empty 0 -9 0 12 #fcfcfc #000000 #000000 0 1;
#X msg 389 337 \$1 10;
#X obj 389 361 line~;
#X obj 164 420 *~;
#X obj 53 221 t b;
#X obj 139 240 t b b;
#X obj 11 167 select 1 2 3 4 5 6 7 8 9 10 11 12 13 14 15 16;
#X obj 138 213 spigot;
#N canvas 69 83 1536 821 synth 1;
#X obj 161 6 inlet;
#X obj 161 30 t b f b;
#X obj 151 157 noise~;
#X obj 151 180 *~;
#X obj 153 268 hip~;
#X obj 324 215 * 2;
#X msg 265 198 1000 \$1;
#X obj 265 221 /;
#X obj 439 233 line~;
#X obj 321 161 mtof;
#X obj 381 217 * 4;
#X obj 354 216 * 3;
#X obj 216 164 / 127;
#X obj 296 372 outlet~;
#N canvas 998 208 821 703 writer 0;
#X obj 41 159 delwrite~ \$0-resonate 100;
#X obj 44 91 inlet~;
#X obj 199 126 outlet~;
#X obj 175 96 *~;
#X obj 174 37 delread4~ \$0-resonate;
#X obj 174 59 lop~ 15000;
#X obj 286 67 inlet~;
#X obj 229 202 block~ 1;
#X obj 170 8 inlet;
#X connect 1 0 0 0;
#X connect 3 0 0 0;
#X connect 3 0 2 0;
#X connect 4 0 5 0;
#X connect 5 0 3 0;
#X connect 6 0 3 1;
#X connect 8 0 4 0;
#X restore 153 293 pd writer;
#X obj 161 54 random 20;
#X obj 161 78 + 107;
#X obj 153 317 *~;
#X obj 266 139 *~;
#X obj 93 121 envelope 10 20 0.5 10 1;
#X obj 343 36 inlet decay;
#X obj 343 60 * 0.5;
#X obj 268 107 envelope 1 40 0.4 10 1;
#X msg 439 210 0.995 10;
#X obj 177 236 vcf~ 0 0.1;
#X obj 95 233 vcf~ 0 0.1;
#X obj 153 365 samphold~;
#X obj 328 328 phasor~;
#X msg 382 249 \$1 100;
#X obj 382 273 line~;
#X obj 466 180 loadbang;
#X obj 153 341 *~ 1;
#X obj 151 204 bob~;
#X connect 0 0 1 0;
#X connect 1 0 15 0;
#X connect 1 1 9 0;
#X connect 2 0 3 0;
#X connect 3 0 32 0;
#X connect 4 0 14 0;
#X connect 5 0 4 1;
#X connect 6 0 7 0;
#X connect 7 0 14 1;
#X connect 8 0 14 2;
#X connect 9 0 6 0;
#X connect 9 0 5 0;
#X connect 9 0 11 0;
#X connect 9 0 10 0;
#X connect 9 0 32 1;
#X connect 10 0 24 1;
#X connect 10 0 28 0;
#X connect 11 0 25 1;
#X connect 12 0 24 2;
#X connect 12 0 25 2;
#X connect 14 0 17 0;
#X connect 15 0 16 0;
#X connect 16 0 12 0;
#X connect 16 0 19 0;
#X connect 16 0 22 0;
#X connect 17 0 31 0;
#X connect 18 0 17 1;
#X connect 19 0 3 1;
#X connect 19 0 32 2;
#X connect 20 0 21 0;
#X connect 20 0 22 1;
#X connect 21 0 19 1;
#X connect 22 0 18 0;
#X connect 22 0 18 1;
#X connect 23 0 8 0;
#X connect 24 0 4 0;
#X connect 25 0 4 0;
#X connect 26 0 13 0;
#X connect 27 0 26 1;
#X connect 28 0 29 0;
#X connect 29 0 27 0;
#X connect 30 0 23 0;
#X connect 31 0 26 0;
#X connect 32 0 25 0;
#X connect 32 0 24 0;
#X restore 204 383 pd synth;
#X msg 32 111 110;
#X obj 199 70 piano_selector;
#X obj 227 317 random_list;
#X obj 222 357 + 48;
#X obj 246 269 t b;
#X obj 153 283 random 10;
#X obj 153 307 + 80;
#X floatatom 320 263 5 0 0 0 - - - 0;
#X obj 164 444 clip~ -1 1;
#N canvas 108 128 1062 776 randomize 0;
#X obj 204 45 inlet generate;
#X obj 91 174 outlet;
#X msg 82 140 1;
#X msg 125 141 0;
#X obj 100 73 coin 1 4;
#X obj 204 69 coin 1 5;
#X connect 0 0 4 0;
#X connect 0 0 5 0;
#X connect 2 0 1 0;
#X connect 3 0 1 0;
#X connect 4 0 2 0;
#X connect 4 1 3 0;
#X restore 192 214 pd randomize;
#X obj 247 293 coin 1 2;
#X obj 384 111 loadbang;
#X msg 384 135 0.5;
#X obj 206 16 loadbang;
#X msg 206 40 1 3 6 8 10;
#X obj 304 194 loadbang;
#X msg 304 218 30;
#X connect 0 1 12 0;
#X connect 0 1 19 0;
#X connect 2 0 15 0;
#X connect 3 0 9 0;
#X connect 5 0 9 0;
#X connect 6 0 7 0;
#X connect 7 0 8 0;
#X connect 8 0 9 1;
#X connect 9 0 23 0;
#X connect 10 0 1 0;
#X connect 10 0 3 0;
#X connect 11 0 5 0;
#X connect 11 1 24 0;
#X connect 11 1 20 0;
#X connect 12 0 10 0;
#X connect 12 4 10 0;
#X connect 12 5 13 0;
#X connect 12 8 10 0;
#X connect 12 8 11 0;
#X connect 12 12 10 0;
#X connect 13 0 11 0;
#X connect 14 0 9 0;
#X connect 15 0 0 0;
#X connect 16 0 17 0;
#X connect 17 0 18 0;
#X connect 18 0 14 0;
#X connect 19 0 25 0;
#X connect 20 0 21 0;
#X connect 21 0 5 3;
#X connect 22 0 14 1;
#X connect 23 0 4 0;
#X connect 23 0 4 1;
#X connect 24 0 13 1;
#X connect 25 0 17 0;
#X connect 26 0 27 0;
#X connect 27 0 6 0;
#X connect 28 0 29 0;
#X connect 29 0 17 0;
#X connect 30 0 31 0;
#X connect 31 0 22 0;
