#N canvas 70 22 958 1028 12;
#N canvas 796 133 816 858 clock 1;
#X obj 39 139 metro;
#X obj 39 161 i;
#X obj 41 20 inlet bpm;
#X obj 39 293 outlet;
#X obj 67 161 + 1;
#X obj 108 171 select 1;
#X msg 108 195 0;
#X obj 39 185 t f f;
#X msg 39 260 1;
#X obj 87 293 s main-clock;
#X obj 147 20 r bpm;
#X msg 73 108 tempo \$1 perminute;
#X obj 41 44 t b f;
#X obj 108 147 >= 199;
#X obj 39 231 select 0 49 99 149, f 25;
#X obj 208 24 r stop-start;
#X obj 73 84 * 200;
#X connect 0 0 1 0;
#X connect 1 0 4 0;
#X connect 1 0 7 0;
#X connect 2 0 12 0;
#X connect 4 0 1 1;
#X connect 5 0 6 0;
#X connect 6 0 1 1;
#X connect 7 0 14 0;
#X connect 7 1 13 0;
#X connect 8 0 3 0;
#X connect 8 0 9 0;
#X connect 10 0 12 0;
#X connect 11 0 0 0;
#X connect 12 0 0 0;
#X connect 12 1 16 0;
#X connect 13 0 5 0;
#X connect 14 0 8 0;
#X connect 15 0 0 0;
#X connect 16 0 11 0;
#X restore 65 142 pd clock;
#N canvas -7 0 958 1028 obstacles 0;
#X obj 46 26 inlet generate;
#X obj 94 105 until;
#X obj 97 127 random 2;
#X obj 104 77 4;
#X obj 258 94 t f f;
#X obj 257 144 spigot;
#X obj 291 120 >> 0;
#X text 251 175 [until] is very unsafe \, this ensures it doesn't get a value less than 0, f 24;
#X obj 46 201 list append;
#X obj 120 177 list prepend;
#X obj 47 50 t b b b, f 20;
#X obj 213 180 t l;
#X obj 46 225 s obstacles;
#X obj 258 66 r number-of-lanes;
#X obj 309 152 select 0;
#X obj 69 449 print number-of-lanes: invalid number (should be > 0);
#X connect 0 0 10 0;
#X connect 1 0 2 0;
#X connect 2 0 9 0;
#X connect 3 0 1 0;
#X connect 4 0 5 0;
#X connect 4 1 6 0;
#X connect 5 0 3 1;
#X connect 6 0 5 1;
#X connect 6 0 14 0;
#X connect 8 0 12 0;
#X connect 9 0 8 1;
#X connect 9 0 11 0;
#X connect 10 0 8 0;
#X connect 10 1 3 0;
#X connect 10 2 9 1;
#X connect 11 0 9 1;
#X connect 13 0 4 0;
#X connect 14 0 15 0;
#X restore 132 220 pd obstacles;
#X obj 104 170 t b;
#X obj 65 87 loadbang;
#X msg 65 111 60;
#X text 207 330 TODO \; softlock checking;
#N canvas 999 196 686 678 drum 0;
#X obj 26 39 inlet trig;
#X obj 123 39 inlet level;
#X obj 21 188 mtof~;
#X obj 21 212 phasor~;
#X obj 21 236 expr~ $v1 > 0.5;
#X obj 21 260 *~;
#X obj 18 309 dac~;
#X obj 236 33 bng 19 250 50 0 empty empty empty 0 -10 0 12 #fcfcfc #000000 #000000;
#X obj 21 140 *~ 40;
#X obj 21 164 +~ 12;
#X obj 21 284 *~ 0.5;
#X obj 21 117 envelope 5 10 0 0 1;
#X obj 174 120 envelope 5 80 0 0 1;
#X obj 79 81 127;
#X connect 0 0 13 0;
#X connect 1 0 13 1;
#X connect 2 0 3 0;
#X connect 3 0 4 0;
#X connect 4 0 5 0;
#X connect 5 0 10 0;
#X connect 7 0 13 0;
#X connect 8 0 9 0;
#X connect 9 0 2 0;
#X connect 10 0 6 0;
#X connect 10 0 6 1;
#X connect 11 0 8 0;
#X connect 12 0 5 1;
#X connect 13 0 11 0;
#X connect 13 0 12 0;
#X restore 54 228 pd drum;
#X connect 0 0 2 0;
#X connect 2 0 1 0;
#X connect 2 0 6 0;
#X connect 3 0 4 0;
#X connect 4 0 0 0;
