#N canvas -317 126 1920 1037 12;
#X obj 12 33 tgl 19 0 empty empty empty 0 -10 0 12 #fcfcfc #000000 #000000 0 1;
#X obj 33 33 tgl 19 0 empty empty empty 0 -10 0 12 #fcfcfc #000000 #000000 0 3;
#X obj 54 33 tgl 19 0 empty empty empty 0 -10 0 12 #fcfcfc #000000 #000000 0 5;
#X obj 21 12 tgl 19 0 empty empty empty 0 -10 0 12 #fcfcfc #000000 #000000 0 2;
#X obj 42 12 tgl 19 0 empty empty empty 0 -10 0 12 #fcfcfc #000000 #000000 0 4;
#X obj 75 33 tgl 19 0 empty empty empty 0 -10 0 12 #fcfcfc #000000 #000000 0 6;
#X obj 96 33 tgl 19 0 empty empty empty 0 -10 0 12 #fcfcfc #000000 #000000 0 8;
#X obj 117 33 tgl 19 0 empty empty empty 0 -10 0 12 #fcfcfc #000000 #000000 0 10;
#X obj 84 12 tgl 19 0 empty empty empty 0 -10 0 12 #fcfcfc #000000 #000000 0 7;
#X obj 105 12 tgl 19 0 empty empty empty 0 -10 0 12 #fcfcfc #000000 #000000 0 9;
#X obj 138 33 tgl 19 0 empty empty empty 0 -10 0 12 #fcfcfc #000000 #000000 0 12;
#X obj 126 12 tgl 19 0 empty empty empty 0 -10 0 12 #fcfcfc #000000 #000000 0 11;
#X obj 12 99 pack 0 0 0 0 0 0 0 0 0 0 0 0, f 64;
#X obj 496 44 inlet;
#X obj 496 68 route set;
#X obj 12 122 t b l b, f 23;
#X obj 12 313 list append;
#X obj 33 145 t b b l, f 13;
#X obj 33 169 until;
#X obj 33 193 f, f 6;
#X msg 33 217 get \$1 1;
#X obj 33 241 list store, f 13;
#X obj 33 265 select 0;
#X obj 86 289 list prepend;
#X obj 176 289 t l;
#X msg 77 169 0;
#X obj 81 193 + 1;
#X obj 12 67 t b f;
#X obj 53 67 t b f;
#X obj 94 67 t b f;
#X obj 135 67 t b f;
#X obj 176 67 t b f;
#X obj 217 67 t b f;
#X obj 258 67 t b f;
#X obj 299 67 t b f;
#X obj 340 67 t b f;
#X obj 381 67 t b f;
#X obj 422 67 t b f;
#X obj 12 481 outlet;
#X obj 203 337 list length;
#X obj 203 313 list prepend;
#X obj 294 313 t l;
#X obj 203 361 == 12;
#X msg 203 289 F;
#X obj 203 433 spigot;
#X obj 203 409 == 0;
#X obj 12 433 spigot;
#X obj 203 385 t f f f, f 11;
#X obj 277 410 == 0;
#X obj 51 385 loadbang;
#X msg 51 409 1;
#X obj 496 116 until;
#X obj 496 140 f, f 6;
#X msg 496 164 get \$1 1;
#X obj 496 188 list store, f 13;
#X msg 540 116 0;
#X obj 544 140 + 1;
#X obj 496 92 t b b l b, f 20;
#X obj 136 457 list store;
#X obj 597 6 route 1 2 3 4 5 6 7 8 9 10 11 12;
#X msg 566 6 0;
#X connect 0 0 12 0;
#X connect 1 0 28 0;
#X connect 2 0 30 0;
#X connect 3 0 27 0;
#X connect 4 0 29 0;
#X connect 5 0 31 0;
#X connect 6 0 33 0;
#X connect 7 0 35 0;
#X connect 8 0 32 0;
#X connect 9 0 34 0;
#X connect 10 0 37 0;
#X connect 11 0 36 0;
#X connect 12 0 15 0;
#X connect 13 0 14 0;
#X connect 14 0 57 0;
#X connect 14 1 58 0;
#X connect 15 0 16 0;
#X connect 15 1 17 0;
#X connect 15 2 23 1;
#X connect 15 2 40 1;
#X connect 16 0 46 0;
#X connect 17 0 18 0;
#X connect 17 1 25 0;
#X connect 17 2 21 1;
#X connect 18 0 19 0;
#X connect 19 0 20 0;
#X connect 19 0 26 0;
#X connect 20 0 21 0;
#X connect 21 0 22 0;
#X connect 21 1 18 1;
#X connect 22 0 43 0;
#X connect 22 1 23 0;
#X connect 23 0 16 1;
#X connect 23 0 24 0;
#X connect 24 0 23 1;
#X connect 25 0 19 1;
#X connect 26 0 19 1;
#X connect 27 0 12 0;
#X connect 27 1 12 1;
#X connect 28 0 12 0;
#X connect 28 1 12 2;
#X connect 29 0 12 0;
#X connect 29 1 12 3;
#X connect 30 0 12 0;
#X connect 30 1 12 4;
#X connect 31 0 12 0;
#X connect 31 1 12 5;
#X connect 32 0 12 0;
#X connect 32 1 12 6;
#X connect 33 0 12 0;
#X connect 33 1 12 7;
#X connect 34 0 12 0;
#X connect 34 1 12 8;
#X connect 35 0 12 0;
#X connect 35 1 12 9;
#X connect 36 0 12 0;
#X connect 36 1 12 10;
#X connect 37 0 12 0;
#X connect 37 1 12 11;
#X connect 39 0 42 0;
#X connect 40 0 41 0;
#X connect 40 0 39 0;
#X connect 41 0 40 1;
#X connect 42 0 47 0;
#X connect 43 0 40 0;
#X connect 44 0 38 0;
#X connect 44 0 58 1;
#X connect 45 0 44 0;
#X connect 46 0 38 0;
#X connect 46 0 58 1;
#X connect 47 0 45 0;
#X connect 47 1 44 1;
#X connect 47 2 48 0;
#X connect 48 0 46 1;
#X connect 49 0 50 0;
#X connect 50 0 46 1;
#X connect 51 0 52 0;
#X connect 52 0 53 0;
#X connect 52 0 56 0;
#X connect 53 0 54 0;
#X connect 54 0 59 0;
#X connect 54 1 51 1;
#X connect 55 0 52 1;
#X connect 56 0 52 1;
#X connect 57 0 51 0;
#X connect 57 1 55 0;
#X connect 57 2 54 1;
#X connect 57 3 60 0;
#X connect 58 0 38 0;
#X connect 59 0 0 0;
#X connect 59 1 3 0;
#X connect 59 2 1 0;
#X connect 59 3 4 0;
#X connect 59 4 2 0;
#X connect 59 5 5 0;
#X connect 59 6 8 0;
#X connect 59 7 6 0;
#X connect 59 8 9 0;
#X connect 59 9 7 0;
#X connect 59 10 11 0;
#X connect 59 11 10 0;
#X connect 60 0 10 0;
#X connect 60 0 11 0;
#X connect 60 0 9 0;
#X connect 60 0 8 0;
#X connect 60 0 7 0;
#X connect 60 0 6 0;
#X connect 60 0 5 0;
#X connect 60 0 4 0;
#X connect 60 0 3 0;
#X connect 60 0 2 0;
#X connect 60 0 1 0;
#X connect 60 0 0 0;
#X coords 0 -1 1 1 149 46 2 10 10;
