#N canvas -136 101 1920 1037 12;
#X obj 694 152 i;
#X obj 660 151 i;
#X obj 623 153 i;
#X obj 576 151 i;
#X obj 542 148 i;
#X obj 505 149 i;
#X obj 470 150 i;
#X obj 429 149 i;
#X obj 392 151 i;
#X obj 364 149 i;
#X obj 332 158 i;
#X obj 296 159 i;
#X obj 253 158 i;
#X obj 207 158 i;
#X obj 171 154 i;
#X obj 138 117 t b b b b b b b b b b b b b b b b, f 73;
#X obj 126 78 inlet;
#X obj 109 372 outlet;
#X obj 140 191 expr ($f1 + $f2 + $f3 + $f4 + $f5 + $f6 + $f7 + $f8 + $f9 + $f10 + $f11 + $f12 + $f13 + $f14 + $f15 + $f16), f 79;
#X obj 137 149 i;
#X obj 300 78 random 500;
#X obj 393 45 inlet;
#X obj 280 33 loadbang;
#X obj 148 252 % 13;
#X obj 143 309 select 0;
#X msg 184 359 0;
#X obj 184 383 outlet;
#X msg 234 352 127;
#X connect 0 0 18 15;
#X connect 1 0 0 1;
#X connect 1 0 18 14;
#X connect 2 0 1 1;
#X connect 2 0 18 13;
#X connect 3 0 2 1;
#X connect 3 0 18 12;
#X connect 4 0 3 1;
#X connect 4 0 18 11;
#X connect 5 0 4 1;
#X connect 5 0 18 10;
#X connect 6 0 5 1;
#X connect 6 0 18 9;
#X connect 7 0 6 1;
#X connect 7 0 18 8;
#X connect 8 0 7 1;
#X connect 8 0 18 7;
#X connect 9 0 8 1;
#X connect 9 0 18 6;
#X connect 10 0 9 1;
#X connect 10 0 18 5;
#X connect 11 0 10 1;
#X connect 11 0 18 4;
#X connect 12 0 11 1;
#X connect 12 0 18 3;
#X connect 13 0 12 1;
#X connect 13 0 18 2;
#X connect 14 0 13 1;
#X connect 14 0 18 1;
#X connect 15 0 19 0;
#X connect 15 1 14 0;
#X connect 15 2 13 0;
#X connect 15 3 12 0;
#X connect 15 4 11 0;
#X connect 15 5 10 0;
#X connect 15 6 9 0;
#X connect 15 7 8 0;
#X connect 15 8 7 0;
#X connect 15 9 6 0;
#X connect 15 10 5 0;
#X connect 15 11 4 0;
#X connect 15 12 3 0;
#X connect 15 13 2 0;
#X connect 15 14 1 0;
#X connect 15 15 0 0;
#X connect 16 0 15 0;
#X connect 18 0 23 0;
#X connect 19 0 14 1;
#X connect 19 0 18 0;
#X connect 20 0 19 1;
#X connect 21 0 20 0;
#X connect 22 0 20 0;
#X connect 23 0 19 1;
#X connect 23 0 24 0;
#X connect 24 0 25 0;
#X connect 24 1 17 0;
#X connect 24 1 27 0;
#X connect 25 0 26 0;
#X connect 27 0 26 0;
