#N canvas 166 81 1920 1037 12;
#X obj 273 58 inlet;
#X obj 206 311 list store;
#X obj 273 229 t l l;
#X obj 307 254 list length;
#X obj 162 257 random;
#X obj 206 360 outlet;
#X obj 273 82 route list float;
#X obj 322 221 t f f;
#X msg 162 281 get \$1 1;
#X connect 0 0 6 0;
#X connect 1 0 5 0;
#X connect 2 0 1 1;
#X connect 2 1 3 0;
#X connect 3 0 4 1;
#X connect 4 0 8 0;
#X connect 6 0 2 0;
#X connect 6 1 7 0;
#X connect 6 2 4 0;
#X connect 7 0 1 1;
#X connect 7 1 3 0;
#X connect 8 0 1 0;
#X coords 0 518.5 1 517.5 100 20 0;
