#N canvas 0 0 1522 802.125 10;
#X msg 300 263 0 \, destroy;
#X obj 46 61 tgl 15 0 empty empty Window 17 7 0 10 #fcfcfc #000000
#000000 0 1;
#X floatatom 126 24 5 1 144 0 Framerate - -, f 5;
#X floatatom 126 43 5 2 400 0 Draw_distance - -, f 5;
#X obj 140 73 vradio 15 0 0 3 empty empty Res 0 -8 0 10 #fcfcfc #000000
#000000 0;
#X obj 46 84 tgl 15 0 empty empty Render 17 7 0 10 #fcfcfc #000000
#000000 1 1;
#X obj 46 108 tgl 15 0 empty empty Lighting 17 7 0 10 #fcfcfc #000000
#000000 0 1;
#X obj 274 353 outlet;
#X obj 123 232 select 0 1 2;
#X msg 123 252 dimen 640 480;
#X msg 146 272 dimen 1280 720;
#X msg 169 292 dimen 1920 1080;
#X obj 33 252 pack 0 0 0 0;
#X obj 54 187 t b f;
#X obj 51 207 t b f;
#X obj 52 227 t b f;
#X obj 302 191 select 1 0;
#X msg 277 234 create;
#X obj 226 29 unpack 0 0 0 0 0;
#X obj 226 9 arg_handler 1 0 30 200 0;
#X obj 383 257 list store;
#X obj 253 80 bng 15 250 50 0 empty empty empty 17 7 0 10 #fcfcfc #000000
#000000;
#X obj 209 200 spigot;
#X obj 302 211 t b b;
#X obj 252 199 spigot;
#X obj 202 129 t f f;
#X obj 383 277 list trim;
#X msg 391 302 \$1 \, lighting \$2 \, frame \$3 \, perspec -1 1 -1
1 1 \$4, f 26;
#X obj 172 165 t b b f b;
#X obj 165 200 spigot;
#X text 321 80 0: 640 480 \; 1: 1280 720 \; 2: 1920 1080;
#X connect 0 0 7 0;
#X connect 1 0 25 0;
#X connect 2 0 14 0;
#X connect 3 0 15 0;
#X connect 4 0 28 0;
#X connect 5 0 12 0;
#X connect 6 0 13 0;
#X connect 8 0 9 0;
#X connect 8 1 10 0;
#X connect 8 2 11 0;
#X connect 9 0 7 0;
#X connect 10 0 7 0;
#X connect 11 0 7 0;
#X connect 12 0 20 1;
#X connect 13 0 12 0;
#X connect 13 1 12 1;
#X connect 14 0 12 0;
#X connect 14 1 12 2;
#X connect 15 0 12 0;
#X connect 15 1 12 3;
#X connect 16 0 23 0;
#X connect 16 1 0 0;
#X connect 17 0 7 0;
#X connect 18 0 5 0;
#X connect 18 1 6 0;
#X connect 18 2 2 0;
#X connect 18 3 3 0;
#X connect 18 4 4 0;
#X connect 19 0 18 0;
#X connect 20 0 26 0;
#X connect 21 0 19 0;
#X connect 22 0 17 0;
#X connect 23 0 20 0;
#X connect 23 1 17 0;
#X connect 24 0 0 0;
#X connect 25 0 16 0;
#X connect 25 1 22 1;
#X connect 25 1 24 1;
#X connect 25 1 29 1;
#X connect 26 0 27 0;
#X connect 27 0 7 0;
#X connect 28 0 29 0;
#X connect 28 1 22 0;
#X connect 28 2 8 0;
#X connect 28 3 24 0;
#X connect 29 0 20 0;
#X coords 0 -1 1 1 118 108 2 43 20;
#X scroll 1;
