#N canvas 52 52 1920 1037 12;
#X obj 263 142 inlet;
#X obj 263 166 mtof;
#X obj 263 190 t b b f, f 17;
#X obj 263 214 until;
#X obj 263 238 f;
#X msg 263 358 append \$1;
#X obj 263 382 list store;
#X obj 263 310 *, f 17;
#X obj 388 334 spigot;
#X obj 388 310 t b f, f 6;
#X obj 263 334 ftom;
#X obj 297 237 + 1;
#X msg 306 214 2;
#X obj 388 286 == 5;
#X obj 263 262 t f f;
#X obj 413 214 \$1;
#X obj 413 262 + 2;
#X obj 413 238 abs;
#X obj 440 214 inlet;
#X obj 263 406 outlet;
#X obj 413 190 loadbang;
#X connect 0 0 1 0;
#X connect 1 0 2 0;
#X connect 2 0 3 0;
#X connect 2 1 12 0;
#X connect 2 1 6 1;
#X connect 2 2 7 1;
#X connect 3 0 4 0;
#X connect 4 0 11 0;
#X connect 4 0 14 0;
#X connect 5 0 6 0;
#X connect 6 0 19 0;
#X connect 7 0 10 0;
#X connect 8 0 3 1;
#X connect 8 0 6 0;
#X connect 9 0 8 0;
#X connect 9 1 8 1;
#X connect 10 0 5 0;
#X connect 11 0 4 1;
#X connect 12 0 4 1;
#X connect 13 0 9 0;
#X connect 14 0 7 0;
#X connect 14 1 13 0;
#X connect 15 0 17 0;
#X connect 16 0 13 1;
#X connect 17 0 16 0;
#X connect 18 0 17 0;
#X connect 20 0 15 0;
