#N canvas 337 305 1200 181.094 12;
#X obj 78 44 color 1 0 0;
#X obj 372 2 gemhead;
#X obj 225 44 color 0 1 0;
#X obj 372 44 color 0 0 1;
#X obj 2 23 sphere 0.1;
#X obj 225 2 gemhead;
#X obj 78 2 gemhead;
#X obj 2 2 gemhead;
#X text 522 10 Not sure why this doesn't exist in vanilla GEM \; X
Y Z \; R G B, f 17;
#X obj 78 23 translateXYZ 0.5 0 0;
#X obj 78 65 cuboid 0.5 0.05 0.05;
#X obj 225 65 cuboid 0.05 0.5 0.05;
#X obj 225 23 translateXYZ 0 0.5 0;
#X obj 372 65 cuboid 0.05 0.05 0.5;
#X obj 372 23 translateXYZ 0 0 0.5;
#X connect 0 0 10 0;
#X connect 1 0 14 0;
#X connect 2 0 11 0;
#X connect 3 0 13 0;
#X connect 5 0 12 0;
#X connect 6 0 9 0;
#X connect 7 0 4 0;
#X connect 9 0 0 0;
#X connect 12 0 2 0;
#X connect 14 0 3 0;
