#N canvas 208 97 1538 818.156 10;
#X floatatom 131 38 5 0 0 0 Move_speed - -, f 5;
#X floatatom 131 57 5 0 0 0 Sprint_factor - -, f 5;
#X obj 51 78 tgl 15 0 empty empty Enable 17 7 0 10 #fcfcfc #000000
#000000 1 1;
#X obj 51 96 bng 15 250 50 0 empty empty Reset 17 7 0 10 #fcfcfc #000000
#000000;
#X obj 107 79 tgl 15 0 empty empty Flight 17 7 0 10 #fcfcfc #000000
#000000 0 1;
#X obj 119 191 pack;
#X obj 140 157 t b f;
#X msg 141 220 speed \$1 \$2;
#X msg 87 219 reset;
#X msg 22 219 enable \$1;
#X msg 224 221 flight \$1;
#X obj 93 285 outlet;
#X obj 107 97 tgl 15 0 empty empty No-clip 17 7 0 10 #fcfcfc #000000
#000000 1 1;
#X obj 71 114 hradio 15 0 0 2 empty empty Source 32 6 0 10 #fcfcfc
#000000 #000000 1;
#X msg 294 221 source \$1;
#X obj 282 76 unpack 0 0 0 0 0 0;
#X obj 282 56 arg_handler 1 2 1 0 0 0;
#X obj 107 142 t f b;
#X obj 89 165 i;
#X msg 368 222 noclip \$1;
#X connect 0 0 17 0;
#X connect 1 0 6 0;
#X connect 2 0 9 0;
#X connect 3 0 8 0;
#X connect 4 0 10 0;
#X connect 5 0 7 0;
#X connect 6 0 18 0;
#X connect 6 1 5 1;
#X connect 7 0 11 0;
#X connect 8 0 11 0;
#X connect 9 0 11 0;
#X connect 10 0 11 0;
#X connect 12 0 19 0;
#X connect 13 0 14 0;
#X connect 14 0 11 0;
#X connect 15 0 0 0;
#X connect 15 1 1 0;
#X connect 15 2 2 0;
#X connect 15 3 4 0;
#X connect 15 4 13 0;
#X connect 15 5 12 0;
#X connect 16 0 15 0;
#X connect 17 0 5 0;
#X connect 17 0 18 1;
#X connect 17 1 1 0;
#X connect 18 0 5 0;
#X connect 19 0 11 0;
#X coords 0 -1 1 1 124 101 2 45 34;
