#N canvas -400 178 1920 1037 12;
#X obj 273 58 inlet;
#X obj 206 311 list store;
#X obj 273 229 t l l;
#X obj 305 265 list length;
#X obj 162 257 random;
#X obj 334 155 s \$0-bng;
#X obj 115 228 r \$0-bng;
#X msg 162 281 get \$1;
#X obj 305 289 s \$0-length;
#X obj 184 226 r \$0-length;
#X obj 206 360 outlet;
#X obj 273 82 route list float;
#X obj 322 221 t f f;
#X connect 0 0 11 0;
#X connect 1 0 10 0;
#X connect 2 0 1 1;
#X connect 2 1 3 0;
#X connect 3 0 8 0;
#X connect 4 0 7 0;
#X connect 6 0 4 0;
#X connect 7 0 1 0;
#X connect 9 0 4 1;
#X connect 11 0 2 0;
#X connect 11 1 12 0;
#X connect 11 2 5 0;
#X connect 12 0 1 1;
#X connect 12 1 3 0;
#X coords 0 518.5 1 517.5 100 20 0;
