#N canvas 320 56 802 738.094 12;
#X obj 184 5 loadbang;
#X obj 5 42 inlet;
#X obj 114 5 inlet;
#X obj 5 367 list append;
#X obj 19 119 until;
#X obj 19 150 f, f 6;
#X obj 19 243 list store, f 13;
#X obj 19 336 list prepend;
#X obj 109 336 t l;
#X msg 63 119 0;
#X obj 67 150 + 1;
#X obj 5 398 outlet;
#X obj 116 243 list store, f 13;
#X msg 19 212 get \$1 1;
#X obj 19 181 t f f;
#X msg 116 220 get \$1 1;
#X msg 221 167 1;
#X obj 244 143 t f b;
#X msg 265 167 0;
#X obj 19 305 +;
#X obj 156 28 \$1;
#X obj 184 28 \$2 \$3 \$4 \$5 \$6;
#X obj 5 88 t b b b l b, f 14;
#X obj 114 58 spigot, f 7;
#X text 234 227 Adds two vectors \, or adds a constant to the vector
at the left inlet. Will truncate the vector at the right inlet to the
length of the vector at the left. First arg allows the left inlet to
reset to initial vector., f 28;
#X obj 114 28 t b a;
#X obj 184 143 t a b b;
#X obj 184 51 route float;
#X obj 116 197 spigot;
#X connect 0 0 21 0;
#X connect 0 0 20 0;
#X connect 1 0 22 0;
#X connect 2 0 25 0;
#X connect 3 0 11 0;
#X connect 4 0 5 0;
#X connect 5 0 10 0;
#X connect 5 0 14 0;
#X connect 6 0 19 0;
#X connect 6 1 4 1;
#X connect 7 0 3 1;
#X connect 7 0 8 0;
#X connect 8 0 7 1;
#X connect 9 0 5 1;
#X connect 10 0 5 1;
#X connect 12 0 19 1;
#X connect 13 0 6 0;
#X connect 14 0 13 0;
#X connect 14 1 28 0;
#X connect 15 0 12 0;
#X connect 16 0 28 1;
#X connect 17 0 19 1;
#X connect 17 1 18 0;
#X connect 18 0 28 1;
#X connect 19 0 7 0;
#X connect 20 0 23 1;
#X connect 21 0 27 0;
#X connect 22 0 3 0;
#X connect 22 0 23 0;
#X connect 22 1 4 0;
#X connect 22 2 9 0;
#X connect 22 3 6 1;
#X connect 22 4 7 1;
#X connect 23 0 21 0;
#X connect 25 0 23 0;
#X connect 25 1 27 0;
#X connect 26 0 12 1;
#X connect 26 1 12 1;
#X connect 26 2 16 0;
#X connect 27 0 17 0;
#X connect 27 1 26 0;
#X connect 28 0 15 0;
