#N canvas 133 102 1004 795.094 12;
#X obj 201 2 loadbang;
#X obj 201 33 \$1;
#X obj 2 2 inlet;
#X obj 160 95 inlet;
#X obj 2 343 list append;
#X obj 16 64 until;
#X obj 16 95 f, f 6;
#X obj 16 188 list store, f 13;
#X obj 16 312 list prepend;
#X obj 106 312 t l;
#X msg 60 64 0;
#X obj 64 95 + 1;
#X obj 2 33 t b b b l b, f 14;
#X obj 2 374 outlet;
#X obj 113 188 list store, f 13;
#X msg 16 157 get \$1 1;
#X obj 16 126 t f f;
#X msg 113 157 get \$1 1;
#X obj 201 126 route list float, f 17;
#X obj 16 281 *;
#X obj 201 64 select 0;
#X msg 201 95 1;
#X obj 201 157 t l b b;
#X msg 247 188 1;
#X obj 113 250 spigot 0;
#X obj 259 157 t f b;
#X msg 291 188 0;
#X text 332 13 multiply two vectors or multiply a vector and a scalar.
Only supports scalars as arguments \; \; Will truncate the vector at
the right inlet to the length of the vector at the left., f 23;
#X connect 0 0 1 0;
#X connect 1 0 20 0;
#X connect 2 0 12 0;
#X connect 3 0 18 0;
#X connect 4 0 13 0;
#X connect 5 0 6 0;
#X connect 6 0 11 0;
#X connect 6 0 16 0;
#X connect 7 0 19 0;
#X connect 7 1 5 1;
#X connect 8 0 4 1;
#X connect 8 0 9 0;
#X connect 9 0 8 1;
#X connect 10 0 6 1;
#X connect 11 0 6 1;
#X connect 12 0 4 0;
#X connect 12 1 5 0;
#X connect 12 2 10 0;
#X connect 12 3 7 1;
#X connect 12 4 8 1;
#X connect 14 0 24 0;
#X connect 15 0 7 0;
#X connect 16 0 15 0;
#X connect 16 1 17 0;
#X connect 17 0 14 0;
#X connect 18 0 22 0;
#X connect 18 1 25 0;
#X connect 19 0 8 0;
#X connect 20 0 21 0;
#X connect 20 1 18 0;
#X connect 21 0 18 0;
#X connect 22 0 14 1;
#X connect 22 1 14 1;
#X connect 22 2 23 0;
#X connect 23 0 24 1;
#X connect 24 0 19 1;
#X connect 25 0 19 1;
#X connect 25 1 26 0;
#X connect 26 0 24 1;
