#N canvas 232 39 1095 701.094 12;
#X obj 2 2 inlet;
#X obj 225 109 unpack 0 0 0;
#X obj 121 236 v \$1_X;
#X obj 206 235 v \$1_Y;
#X obj 296 226 v \$1_Z;
#X obj 105 341 pack 0 0 0;
#X obj 128 374 outlet;
#X obj 77 185 t b b b;
#X obj 225 78 route list;
#X obj 225 140 t b f b b;
#X obj 335 74 inlet;
#X obj 320 140 unpack 0 0 0;
#X obj 335 105 route list;
#X obj 2 33 route bang set get, f 22;
#X obj 139 111 route x y z;
#X obj 32 118 route x y z;
#X obj 113 83 t b a b;
#X msg 172 155 1;
#X msg 139 156 0;
#X text 424 26 stores a three item vector as a value and sends it to
the output. The right inlet will set the value without sending it to
the output \; A message begining with 'set x' followed by a float
will just change the first value \, y the second \, and z the third
\; 'get x' will output the first value. 'y' and 'z' behave similarly
\; A bang will output the stored values \; First argument sets the
vector-value name., f 26;
#X obj 108 270 == 0;
#X obj 118 302 spigot;
#X obj 56 302 spigot 1;
#X obj 222 271 == 0;
#X obj 231 302 spigot;
#X obj 169 302 spigot 1;
#X obj 334 273 == 0;
#X obj 343 304 spigot;
#X obj 281 304 spigot 1;
#X connect 0 0 13 0;
#X connect 1 0 9 0;
#X connect 1 1 3 0;
#X connect 1 2 4 0;
#X connect 2 0 22 0;
#X connect 2 0 21 0;
#X connect 3 0 25 0;
#X connect 3 0 24 0;
#X connect 4 0 28 0;
#X connect 4 0 27 0;
#X connect 5 0 6 0;
#X connect 7 0 2 0;
#X connect 7 1 3 0;
#X connect 7 2 4 0;
#X connect 8 0 1 0;
#X connect 9 0 2 0;
#X connect 9 1 2 0;
#X connect 9 2 3 0;
#X connect 9 3 4 0;
#X connect 10 0 12 0;
#X connect 11 0 2 0;
#X connect 11 1 3 0;
#X connect 11 2 4 0;
#X connect 12 0 11 0;
#X connect 13 0 7 0;
#X connect 13 1 15 0;
#X connect 13 2 16 0;
#X connect 13 3 8 0;
#X connect 14 0 2 0;
#X connect 14 1 3 0;
#X connect 14 2 4 0;
#X connect 15 0 2 0;
#X connect 15 1 3 0;
#X connect 15 2 4 0;
#X connect 16 0 18 0;
#X connect 16 1 14 0;
#X connect 16 2 17 0;
#X connect 17 0 24 1;
#X connect 17 0 21 1;
#X connect 17 0 27 1;
#X connect 17 0 20 0;
#X connect 17 0 26 0;
#X connect 17 0 23 0;
#X connect 18 0 21 1;
#X connect 18 0 24 1;
#X connect 18 0 27 1;
#X connect 18 0 20 0;
#X connect 18 0 26 0;
#X connect 18 0 23 0;
#X connect 20 0 22 1;
#X connect 21 0 6 0;
#X connect 22 0 5 0;
#X connect 23 0 25 1;
#X connect 24 0 6 0;
#X connect 25 0 5 1;
#X connect 26 0 28 1;
#X connect 27 0 6 0;
#X connect 28 0 5 2;
