#N canvas 604 224 786 566.156 10;
#X obj 40 25 inlet;
#X obj 100 25 inlet, f 12;
#X obj 67 165 outlet;
#X obj 40 45 t f f;
#X obj 40 75 ||, f 5;
#X obj 100 75 &&, f 12;
#X obj 100 95 == 0, f 12;
#X obj 67 145 &&, f 6;
#X obj 40 95 t f f;
#X obj 40 185 outlet, f 10;
#X obj 100 45 t f f, f 12;
#X connect 0 0 3 0;
#X connect 1 0 10 0;
#X connect 3 0 4 0;
#X connect 3 1 5 0;
#X connect 4 0 8 0;
#X connect 5 0 6 0;
#X connect 6 0 7 1;
#X connect 7 0 2 0;
#X connect 8 0 9 0;
#X connect 8 1 7 0;
#X connect 10 0 4 1;
#X connect 10 1 5 1;
